<svg xmlns="http://www.w3.org/2000/svg" viewBox="52 4 296 452"><defs>
<radialGradient id="fo" cx="50%" cy="72%" r="65%"><stop offset="0" stop-color="#fff6d8"/><stop offset=".35" stop-color="#ffd37a"/><stop offset=".75" stop-color="#ee8a6a"/><stop offset="1" stop-color="#c24a6a"/></radialGradient>
<radialGradient id="fr" cx="50%" cy="72%" r="65%"><stop offset="0" stop-color="#ffe9ee"/><stop offset=".4" stop-color="#ff9fb4"/><stop offset=".8" stop-color="#e5718a"/><stop offset="1" stop-color="#a8455c"/></radialGradient>
<radialGradient id="fa" cx="50%" cy="72%" r="65%"><stop offset="0" stop-color="#ffd9b0"/><stop offset=".35" stop-color="#ff9a5a"/><stop offset=".75" stop-color="#e5503a"/><stop offset="1" stop-color="#a8213a"/></radialGradient><linearGradient id="wax" x1="0" x2="1"><stop offset="0" stop-color="#e9d7b8"/><stop offset=".45" stop-color="#fff6e6"/><stop offset="1" stop-color="#d8bf9a"/></linearGradient>
<filter id="fb"><feGaussianBlur stdDeviation="6"/></filter><filter id="fb2"><feGaussianBlur stdDeviation="14"/></filter></defs><path d="M214 30 C226 96 322 170 322 296 C322 376 268 430 200 430 C132 430 78 376 78 296 C78 220 130 190 150 128 C166 164 186 172 196 160 C206 120 196 76 214 30Z" fill="url(#fo)"/><path d="M204 118 C214 170 262 214 262 300 C262 350 236 384 200 384 C164 384 138 350 138 300 C138 244 190 212 204 118Z" fill="#fff6d8" opacity=".35" filter="url(#fb)"/><ellipse cx="122" cy="330" rx="22" ry="12" fill="#ff7c8a" opacity="0.5"/><ellipse cx="278" cy="330" rx="22" ry="12" fill="#ff7c8a" opacity="0.5"/><path d="M136 306 Q158 280 180 306" fill="none" stroke="#5a1f33" stroke-width="7" stroke-linecap="round" stroke-linejoin="round"/><path d="M220 306 Q242 280 264 306" fill="none" stroke="#5a1f33" stroke-width="7" stroke-linecap="round" stroke-linejoin="round"/><path d="M178 334 Q200 366 222 334 Z" fill="#5a1f33" stroke="#5a1f33" stroke-width="5" stroke-linejoin="round"/><path transform="translate(200 402) scale(0.28) translate(-50 -48)" d="M50 88 C20 64 6 46 6 30 C6 16 17 8 29 8 C38 8 46 13 50 21 C54 13 62 8 71 8 C83 8 94 16 94 30 C94 46 80 64 50 88 Z" fill="#fff" opacity="0.9"/></svg>