<svg xmlns="http://www.w3.org/2000/svg" viewBox="0 0 400 480"><defs><linearGradient id="g49" x1="0" y1="0" x2="0" y2="1"><stop offset="0" stop-color="#FFB8C8"/><stop offset=".5" stop-color="#E9768F"/><stop offset="1" stop-color="#E5718A"/></linearGradient><radialGradient id="gl50"><stop offset="0" stop-color="#E9768F" stop-opacity=".55"/><stop offset="1" stop-color="#E9768F" stop-opacity="0"/></radialGradient><filter id="b51" x="-50%" y="-50%" width="200%" height="200%"><feGaussianBlur stdDeviation="4"/></filter><filter id="s52" x="-50%" y="-50%" width="200%" height="200%"><feGaussianBlur stdDeviation="9"/></filter></defs>
  <circle cx="200" cy="270" r="190" fill="url(#gl50)"/>
  <ellipse cx="200" cy="462" rx="70" ry="9" fill="#000" opacity=".4" filter="url(#s52)"/>
  <path d="M200 40 C250 140 320 190 320 290 C320 370 270 426 200 426 C130 426 80 370 80 290 C80 190 150 140 200 40Z" fill="url(#g49)"/>
  <path d="M200 70 C240 150 292 196 298 270" fill="none" stroke="#fff" stroke-opacity=".5" stroke-width="9" stroke-linecap="round" filter="url(#b51)"/>
  <ellipse cx="150" cy="230" rx="22" ry="40" fill="#fff" opacity=".28" transform="rotate(20 150 230)"/>
  <ellipse cx="124" cy="322" rx="22" ry="12" fill="#ff6f8f" opacity=".42" filter="url(#b51)"/><ellipse cx="276" cy="322" rx="22" ry="12" fill="#ff6f8f" opacity=".42" filter="url(#b51)"/><path d="M138 298 Q160 272 182 298" fill="none" stroke="#2b1810" stroke-width="7" stroke-linecap="round"/><path d="M218 298 Q240 272 262 298" fill="none" stroke="#2b1810" stroke-width="7" stroke-linecap="round"/><path d="M178 326 Q200 360 222 326 Z" fill="#7a2a22" stroke="#7a2a22" stroke-width="5" stroke-linejoin="round"/><ellipse cx="200" cy="340.4" rx="10.120000000000001" ry="5.2" fill="#ff8c9d"/>
  <g transform="translate(200 392) scale(.36) translate(-50 -48)"><path d="M50 88 C20 64 6 46 6 30 C6 16 17 8 29 8 C38 8 46 13 50 21 C54 13 62 8 71 8 C83 8 94 16 94 30 C94 46 80 64 50 88 Z" fill="#fff" opacity=".8"/></g>
  <path transform="translate(70 120) scale(1)" d="M0 -20 Q2 -2 20 0 Q2 2 0 20 Q-2 2 -20 0 Q-2 -2 0 -20Z" fill="#FFF2B8"/><path transform="translate(340 90) scale(0.7)" d="M0 -20 Q2 -2 20 0 Q2 2 0 20 Q-2 2 -20 0 Q-2 -2 0 -20Z" fill="#FFF2B8"/><path transform="translate(350 300) scale(0.55)" d="M0 -20 Q2 -2 20 0 Q2 2 0 20 Q-2 2 -20 0 Q-2 -2 0 -20Z" fill="#FFF2B8"/></svg>